<svg width="59" height="59" viewBox="0 0 59 59" fill="none" xmlns="http://www.w3.org/2000/svg">
<path d="M39.2164 29.4998C39.2164 24.1334 34.8661 19.7831 29.4998 19.7831C24.1334 19.7831 19.7831 24.1334 19.7831 29.4998C19.7831 34.8661 24.1334 39.2164 29.4998 39.2164C34.8661 39.2164 39.2164 34.8661 39.2164 29.4998Z" fill="white"/>
<path fill-rule="evenodd" clip-rule="evenodd" d="M4.0538 19.713C-1.35127 25.1182 -1.35127 33.8818 4.0538 39.287L19.713 54.9462C25.1182 60.3513 33.8818 60.3513 39.287 54.9462L54.9462 39.287C60.3513 33.8818 60.3513 25.1182 54.9462 19.713L39.287 4.0538C33.8818 -1.35127 25.1182 -1.35127 19.713 4.0538L4.0538 19.713ZM36.3508 36.3508C40.1345 32.5673 40.1345 26.4327 36.3508 22.6492C32.5673 18.8655 26.4327 18.8655 22.6492 22.6492C18.8655 26.4327 18.8655 32.5673 22.6492 36.3508C26.4327 40.1345 32.5673 40.1345 36.3508 36.3508Z" fill="#2962FF"/>
</svg>
